# xmcd
#
# Track frame offsets:
#	150
#	13632
#	14193
#	29373
#	43445
#	43793
#
# Disc length: 845 seconds
#
# Revision: 0
# Processed by: cddbd v1.4PL0 Copyright (c) Steve Scherf et al.
# Submitted via: audiograbber 1.80
#
DISCID=50034b06
DTITLE=Joe Berry - Your Memory Keeps On Fanning The Flame
DYEAR=1900
DGENRE=
TTITLE0=Your memory Keeps On Fanning The Flame
TTITLE1=Darling
TTITLE2=Darling (Contd)
TTITLE3=Love On The Rocks
TTITLE4=Love On The Rocks (Contd)
TTITLE5=I'LL SPEND ALL MY TIME LOVING YOU
EXTD=Album Performed by Joe Berry and all songs consist of songs Published by J
EXTD=uanita Ford Publishing . Writers are Joe Berry/Juanita Ford BMI all rights
EXTD=reserved copyright 2001
EXTT0=
EXTT1=
EXTT2=
EXTT3=
EXTT4=
EXTT5=
PLAYORDER=
